<svg xmlns="http://www.w3.org/2000/svg" width="96" height="96" viewBox="0 0 96 96" version="1.1"><path d="" stroke="none" fill="#a0acbc" fill-rule="evenodd"/><path d="M 6.682 10.651 C 5.255 12.078, 6.070 15.206, 8 15.710 C 9.910 16.210, 10 17.074, 10 34.956 L 10 53.679 7.528 54.805 C 4.235 56.305, 3.871 58.304, 4.211 73 L 4.500 85.500 35 85.500 L 65.500 85.500 65.789 73 C 66.129 58.304, 65.765 56.305, 62.472 54.805 L 60 53.679 60 34.956 C 60 16.837, 60.067 16.216, 62.079 15.690 C 63.574 15.299, 64.066 14.493, 63.829 12.823 L 63.500 10.500 35.432 10.235 C 19.994 10.089, 7.057 10.276, 6.682 10.651 M 15.770 37.706 L 15.500 59.411 13 59.998 C 10.571 60.569, 10.492 60.863, 10.214 70.293 L 9.928 80 19.964 80 L 30 80 30 73 L 30 66 35 66 L 40 66 40 73 L 40 80 50.036 80 L 60.072 80 59.786 70.293 C 59.508 60.863, 59.429 60.569, 57 59.998 L 54.500 59.411 54.230 37.706 L 53.961 16 35 16 L 16.039 16 15.770 37.706 M 24 28 L 24 32 28 32 L 32 32 32 28 L 32 24 28 24 L 24 24 24 28 M 38 28 L 38 32 42 32 L 46 32 46 28 L 46 24 42 24 L 38 24 38 28 M 64 27 L 64 30 73 30 C 86.590 30, 86 28.775, 86 57 L 86 80 78.113 80 L 70.227 80 69.782 83.031 L 69.337 86.062 80.419 85.781 L 91.500 85.500 91.767 59 C 91.953 40.629, 91.680 31.642, 90.877 29.703 C 89.029 25.242, 85.364 24, 74.050 24 L 64 24 64 27 M 24 42 L 24 46 28 46 L 32 46 32 42 L 32 38 28 38 L 24 38 24 42 M 38 42 L 38 46 42 46 L 46 46 46 42 L 46 38 42 38 L 38 38 38 42 M 72 42 L 72 46 76 46 L 80 46 80 42 L 80 38 76 38 L 72 38 72 42 M 24 56 L 24 60 28 60 L 32 60 32 56 L 32 52 28 52 L 24 52 24 56 M 38 56 L 38 60 42 60 L 46 60 46 56 L 46 52 42 52 L 38 52 38 56 M 72 56 L 72 60 76 60 L 80 60 80 56 L 80 52 76 52 L 72 52 72 56 M 16 70 L 16 74 20 74 L 24 74 24 70 L 24 66 20 66 L 16 66 16 70 M 46 70 L 46 74 50 74 L 54 74 54 70 L 54 66 50 66 L 46 66 46 70 M 72 70 L 72 74 76 74 L 80 74 80 70 L 80 66 76 66 L 72 66 72 70" stroke="none" fill="#9cacbc" fill-rule="evenodd"/></svg>