<svg xmlns="http://www.w3.org/2000/svg" width="100" height="100" viewBox="0 0 100 100" version="1.1"><path d="" stroke="none" fill="#a0acbc" fill-rule="evenodd"/><path d="M 43.625 9.469 C 38.819 11.182, 33.359 16.354, 32.054 20.428 C 31.513 22.118, 31.127 27.919, 31.197 33.321 C 31.295 40.904, 31.711 43.638, 33.024 45.321 C 33.960 46.519, 35.072 48.625, 35.497 50 C 35.922 51.375, 36.884 53.388, 37.635 54.473 C 38.386 55.557, 39 58.167, 39 60.272 C 39 63.298, 39.738 64.859, 42.526 67.730 C 44.466 69.727, 46.326 72.452, 46.661 73.785 C 47.305 76.350, 45.158 87, 43.998 87 C 43.301 87, 38.798 72.611, 37.313 65.641 L 36.492 61.781 34.239 63.641 C 31.995 65.493, 31.993 65.521, 33.719 70.858 C 35.441 76.186, 35.438 76.227, 33.225 78.019 C 32.001 79.010, 31 80.158, 31 80.569 C 31 80.981, 32.815 83.722, 35.032 86.659 L 39.065 92 50.282 91.988 L 61.500 91.976 65.250 86.574 C 67.313 83.603, 69 80.868, 69 80.496 C 69 80.125, 68.036 79.040, 66.858 78.086 C 64.837 76.449, 64.787 76.055, 65.982 71.077 C 67.151 66.200, 67.096 65.652, 65.252 63.808 C 63.259 61.815, 63.257 61.817, 62.594 65.657 C 61.602 71.404, 56.785 87, 56.002 87 C 54.842 87, 52.695 76.350, 53.339 73.785 C 53.674 72.452, 55.582 69.678, 57.579 67.622 C 60.489 64.625, 61.123 63.293, 60.774 60.913 C 60.359 58.086, 63.016 51.534, 67.226 45 C 68.491 43.037, 68.801 40.120, 68.669 31.421 C 68.510 20.984, 68.340 20.132, 65.731 16.713 C 63.846 14.242, 61.862 12.877, 59.515 12.437 C 57.384 12.037, 55.839 11.067, 55.467 9.895 C 54.732 7.580, 49.457 7.390, 43.625 9.469 M 24.399 69.906 C 16.437 73.522, 10 82.043, 10 88.968 L 10 92 22.532 92 L 35.065 92 31.032 86.659 C 28.815 83.722, 27 80.749, 27 80.053 C 27 79.357, 28.083 77.936, 29.407 76.895 C 31.584 75.182, 31.711 74.668, 30.739 71.501 C 30.148 69.575, 29.402 68.010, 29.082 68.022 C 28.762 68.034, 26.654 68.882, 24.399 69.906 M 69.152 71.196 C 68.343 74.060, 68.537 74.793, 70.610 76.702 C 73.739 79.585, 73.648 80.359, 69.500 86.133 C 67.575 88.812, 66 91.229, 66 91.502 C 66 91.776, 71.400 92, 78 92 L 90 92 90 88.460 C 90 80.376, 82.214 71.632, 72.293 68.573 C 70.419 67.995, 69.944 68.392, 69.152 71.196" stroke="none" fill="#9cacbc" fill-rule="evenodd"/></svg>