<svg xmlns="http://www.w3.org/2000/svg" width="300" height="300" viewBox="0 0 300 300" version="1.1"><path d="M 144.750 4.737 C 147.637 4.939, 152.363 4.939, 155.250 4.737 C 158.137 4.535, 155.775 4.370, 150 4.370 C 144.225 4.370, 141.863 4.535, 144.750 4.737 M 129.750 5.662 C 130.438 5.940, 131.563 5.940, 132.250 5.662 C 132.938 5.385, 132.375 5.158, 131 5.158 C 129.625 5.158, 129.063 5.385, 129.750 5.662 M 218 21.376 C 218 21.610, 219.602 22.748, 221.560 23.903 C 223.518 25.058, 224.840 25.549, 224.497 24.995 C 223.827 23.911, 218 20.665, 218 21.376 M 69.872 27.750 C 68.603 29.369, 68.650 29.390, 70.500 28.033 C 71.600 27.226, 72.688 26.439, 72.917 26.283 C 73.146 26.127, 72.863 26, 72.289 26 C 71.715 26, 70.627 26.788, 69.872 27.750 M 245 40.088 C 245 40.342, 248.375 43.903, 252.500 48 C 256.625 52.097, 260 55.198, 260 54.890 C 260 54.582, 258.024 52.343, 255.608 49.915 C 249.034 43.307, 245 39.570, 245 40.088 M 45.971 47.750 L 39.500 54.500 46.250 48.029 C 52.520 42.018, 53.457 41, 52.721 41 C 52.568 41, 49.530 44.038, 45.971 47.750 M 263.500 60 C 264.495 61.100, 265.535 62, 265.810 62 C 266.085 62, 265.495 61.100, 264.500 60 C 263.505 58.900, 262.465 58, 262.190 58 C 261.915 58, 262.505 58.900, 263.500 60 M 82.817 79.749 C 94.542 79.909, 113.442 79.909, 124.817 79.749 C 136.193 79.588, 126.600 79.457, 103.500 79.458 C 80.400 79.458, 71.093 79.589, 82.817 79.749 M 279 84.642 C 279 85.179, 279.700 86.491, 280.555 87.559 C 282.022 89.389, 282.042 89.357, 280.920 87 C 279.462 83.939, 279 83.372, 279 84.642 M 193 91.350 C 193 91.581, 194.180 92.543, 195.623 93.489 C 197.066 94.434, 197.941 94.713, 197.567 94.109 C 196.854 92.955, 193 90.626, 193 91.350 M 14.345 94.543 C 14.019 95.392, 13.976 96.310, 14.249 96.583 C 14.523 96.856, 14.986 96.161, 15.279 95.040 C 15.903 92.657, 15.210 92.289, 14.345 94.543 M 206 101.500 C 207.292 102.875, 208.574 104, 208.849 104 C 209.124 104, 208.292 102.875, 207 101.500 C 205.708 100.125, 204.426 99, 204.151 99 C 203.876 99, 204.708 100.125, 206 101.500 M 124.237 149.250 L 124.474 185.500 124.750 149.779 L 125.025 114.058 138.263 113.747 L 151.500 113.437 137.750 113.218 L 124 113 124.237 149.250 M 5.195 129.500 C 5.215 131.150, 5.439 131.704, 5.693 130.731 C 5.947 129.758, 5.930 128.408, 5.656 127.731 C 5.382 127.054, 5.175 127.850, 5.195 129.500 M 293.158 131 C 293.158 132.375, 293.385 132.938, 293.662 132.250 C 293.940 131.563, 293.940 130.438, 293.662 129.750 C 293.385 129.063, 293.158 129.625, 293.158 131 M 84.462 182 C 84.462 208.125, 84.591 218.813, 84.749 205.750 C 84.907 192.688, 84.907 171.313, 84.749 158.250 C 84.591 145.188, 84.462 155.875, 84.462 182 M 4.370 150 C 4.370 155.775, 4.535 158.137, 4.737 155.250 C 4.939 152.363, 4.939 147.637, 4.737 144.750 C 4.535 141.863, 4.370 144.225, 4.370 150 M 225.320 150 C 225.320 153.575, 225.502 155.037, 225.723 153.250 C 225.945 151.463, 225.945 148.537, 225.723 146.750 C 225.502 144.963, 225.320 146.425, 225.320 150 M 294.355 152.500 C 294.352 157.450, 294.521 159.601, 294.731 157.280 C 294.940 154.959, 294.943 150.909, 294.736 148.280 C 294.530 145.651, 294.358 147.550, 294.355 152.500 M 188.158 158 C 188.158 159.375, 188.385 159.938, 188.662 159.250 C 188.940 158.563, 188.940 157.438, 188.662 156.750 C 188.385 156.063, 188.158 156.625, 188.158 158 M 6.100 176.691 C 6.045 178.446, 6.450 180.160, 7 180.500 C 8.150 181.211, 8.150 179.591, 7 176 C 6.235 173.613, 6.195 173.644, 6.100 176.691 M 291.116 180.168 C 291.052 181.086, 290.741 182.661, 290.424 183.668 C 289.879 185.404, 289.909 185.407, 290.992 183.719 C 291.620 182.739, 291.931 181.164, 291.683 180.219 C 291.277 178.670, 291.221 178.665, 291.116 180.168 M 154.250 185.716 C 155.762 185.945, 158.238 185.945, 159.750 185.716 C 161.262 185.487, 160.025 185.300, 157 185.300 C 153.975 185.300, 152.738 185.487, 154.250 185.716 M 202.924 200.750 L 200.500 203.500 203.250 201.076 C 204.762 199.742, 206 198.505, 206 198.326 C 206 197.541, 205.190 198.180, 202.924 200.750 M 21.710 220 C 21.998 221.100, 22.647 222, 23.152 222 C 23.659 222, 23.591 221.105, 23 220 C 22.411 218.900, 21.763 218, 21.558 218 C 21.354 218, 21.423 218.900, 21.710 220 M 160.750 218.662 C 161.438 218.940, 162.563 218.940, 163.250 218.662 C 163.938 218.385, 163.375 218.158, 162 218.158 C 160.625 218.158, 160.063 218.385, 160.750 218.662 M 149.750 219.706 C 150.988 219.944, 153.012 219.944, 154.250 219.706 C 155.488 219.467, 154.475 219.272, 152 219.272 C 149.525 219.272, 148.512 219.467, 149.750 219.706 M 124.473 244.750 L 124.500 269.500 127.500 269.593 C 130.294 269.680, 130.313 269.659, 127.767 269.281 L 125.035 268.876 124.741 244.437 L 124.446 219.999 124.473 244.750 M 34.500 239 C 35.495 240.100, 36.535 241, 36.810 241 C 37.085 241, 36.495 240.100, 35.500 239 C 34.505 237.900, 33.465 237, 33.190 237 C 32.915 237, 33.505 237.900, 34.500 239 M 262.494 240.006 C 261.496 241.110, 260.864 242.190, 261.089 242.408 C 261.315 242.626, 262.309 241.723, 263.297 240.402 C 265.479 237.484, 264.994 237.245, 262.494 240.006 M 42.083 247.637 C 44.512 250.462, 46.703 252.584, 46.952 252.352 C 47.200 252.120, 45.213 249.808, 42.535 247.215 L 37.666 242.500 42.083 247.637 M 250.966 252.750 L 245.500 258.500 251.250 253.034 C 256.592 247.956, 257.458 247, 256.716 247 C 256.560 247, 253.972 249.588, 250.966 252.750 M 52 257.500 C 53.292 258.875, 54.574 260, 54.849 260 C 55.124 260, 54.292 258.875, 53 257.500 C 51.708 256.125, 50.426 255, 50.151 255 C 49.876 255, 50.708 256.125, 52 257.500 M 239.405 263.250 L 237.500 265.500 239.750 263.595 C 240.988 262.547, 242 261.535, 242 261.345 C 242 260.545, 241.195 261.136, 239.405 263.250 M 59.500 264 C 60.495 265.100, 61.535 266, 61.810 266 C 62.085 266, 61.495 265.100, 60.500 264 C 59.505 262.900, 58.465 262, 58.190 262 C 57.915 262, 58.505 262.900, 59.500 264 M 148.399 273.431 C 149.993 274.314, 151.531 274.803, 151.815 274.518 C 152.605 273.728, 151.783 273.227, 148.498 272.495 L 145.500 271.826 148.399 273.431 M 225 273 C 223.718 273.828, 223.754 273.972, 225.250 273.985 C 226.213 273.993, 227 273.550, 227 273 C 227 271.780, 226.887 271.780, 225 273 M 180.500 291 C 177.732 291.704, 177.694 291.771, 180 291.866 C 181.375 291.923, 183.175 291.533, 184 291 C 185.702 289.900, 184.822 289.900, 180.500 291 M 152.750 294.662 C 153.438 294.940, 154.563 294.940, 155.250 294.662 C 155.938 294.385, 155.375 294.158, 154 294.158 C 152.625 294.158, 152.063 294.385, 152.750 294.662" stroke="none" fill="#a7d5ec" fill-rule="evenodd"/><path d="M 126 6.428 C 93.759 12.215, 70.473 24.453, 46.964 47.963 C 29.428 65.501, 19.181 81.882, 12.070 103.742 C 6.421 121.112, 5.500 127.593, 5.500 150 C 5.500 168.973, 5.706 171.356, 8.273 182 C 13.086 201.962, 21.865 220.877, 33.610 236.599 C 39.839 244.935, 54.041 259.101, 62.713 265.628 L 70.075 271.168 77.043 269.923 L 84.012 268.678 83.756 189.619 L 83.500 110.560 72.500 108.478 L 61.500 106.396 61.500 92.948 L 61.500 79.500 110 79.587 C 155.411 79.668, 159.131 79.809, 168.413 81.790 C 207.461 90.128, 230.182 121.507, 225.041 160 C 221.274 188.203, 202.005 208.880, 172.224 216.673 C 164.055 218.811, 159.502 219.301, 143.750 219.740 L 125 220.262 125 244.437 L 125 268.612 136.250 270.378 C 153.899 273.149, 152 271.536, 152 283.759 L 152 294.302 161.750 293.659 C 180.087 292.448, 195.097 288.128, 214.500 278.477 C 230.130 270.702, 241.423 262.422, 253.525 249.865 C 272.985 229.673, 285.694 205.696, 291.702 177.836 C 294.270 165.929, 294.260 133.057, 291.684 121 C 285.473 91.922, 272.541 68.175, 251.643 47.467 C 230.528 26.544, 207.808 13.994, 179.084 7.385 C 169.811 5.251, 135.954 4.641, 126 6.428 M 124.774 150 L 124.500 186.001 137 185.937 C 156.610 185.838, 164.991 184.749, 171.502 181.455 C 178.201 178.065, 182.367 173.597, 185.870 166.046 C 188.110 161.217, 188.446 159.140, 188.471 149.981 C 188.498 140.081, 188.306 139.068, 185.213 132.783 C 180.975 124.172, 175.141 118.984, 166.509 116.151 C 160.817 114.282, 157.668 114, 142.503 114 L 125.049 114 124.774 150" stroke="none" fill="#2c85bc" fill-rule="evenodd"/></svg>