<svg width="163" height="167" viewBox="0 0 163 167" fill="none" xmlns="http://www.w3.org/2000/svg">
<path d="M68.8275 166C49.8373 162.9 29.9662 151.3 18.5134 136.6C11.857 128 6.27747 117.2 3.14508 106.5C-0.378868 94.4 -0.672531 74.9 2.65564 62.5C6.0817 49.4 13.9127 34.6 20.7648 28.1L23.3099 25.7V29.6C23.3099 36.9 26.1486 47.5 30.5535 56.5C40.4401 76.9 62.7585 94.8 91.3416 105C108.863 111.3 129.224 115 146.452 115C151.934 115 156.437 115.3 156.437 115.6C156.437 115.9 154.87 119.3 152.913 123C148.508 131.6 140.579 141.4 132.748 148C125.308 154.2 109.549 162.2 100.249 164.4C91.9289 166.5 76.6585 167.2 68.8275 166Z" fill="#0043B2"/>
<path d="M118.75 96.9C101.424 94.6 82.4338 88.4 69.1211 80.6C44.7472 66.4 32.1197 47.4 32.1197 24.8V17.1L36.5247 14C40.9296 10.9 51.1099 5.8 55.5148 4.5C57.5704 3.9 57.7662 4 57.1789 5.6C49.7394 25.2 53.9486 46.2 68.5338 62.5C86.0556 82 119.827 95 152.913 95C161.82 95 164.953 96 160.156 97.4C156.828 98.3 126.679 97.9 118.75 96.9Z" fill="#0043B2"/>
<path d="M122.861 76.5C106.416 73.7 90.1669 66.6 78.9099 57.5C72.4493 52.2 65.9887 42.9 63.9331 35.7C61.6817 28.1 62.0732 14.9 64.7162 7.50001L66.8697 1.50001L72.2535 0.700007C77.1479 -0.0999932 89.4817 0.200007 90.3627 1.20001C90.5585 1.40001 89.0901 4.90001 87.1324 9.00001C83.9021 15.7 83.5106 17.1 83.5106 24.5C83.5106 31.9 83.8042 33.3 87.2303 40.2C96.7254 59.9 121.295 73.1 151.346 74.7C161.918 75.3 164.659 76.1 160.156 77.4C156.241 78.4 130.692 77.8 122.861 76.5Z" fill="#0043B2"/>
<path d="M130.007 56.5C116.596 53.8 107.297 48.8 99.8578 40.5C91.4394 31.1 89.7754 21 94.7676 9.2C97.9 1.7 98.2916 1.6 107.101 4.5C117.967 8 118.065 8.1 116.009 12.5C107.395 30.9 123.449 50.2 150.563 54.2C155.751 55 158.394 55.8 158.394 56.7C158.394 58.4 138.817 58.3 130.007 56.5Z" fill="#0043B2"/>
<path d="M137.446 36.4C127.462 33.2 122.176 27.6 122.176 20C122.176 13.6 123.253 12.2 126.777 14C130.105 15.8 146.844 32.6 148.508 35.8C149.585 37.9 149.487 38 145.963 37.9C143.907 37.9 140.089 37.2 137.446 36.4Z" fill="#0043B2"/>
</svg>
