<svg xmlns="http://www.w3.org/2000/svg" width="96" height="96" viewBox="0 0 96 96" version="1.1"><path d="" stroke="none" fill="#a0acbc" fill-rule="evenodd"/><path d="M 57.073 6.635 C 54.735 9.606, 54.598 10.381, 55.961 12.928 C 57.789 16.343, 55.188 17.761, 46.228 18.235 C 37.039 18.720, 37.387 18.986, 36.770 11.007 C 36.147 2.944, 25.063 3.970, 25.015 12.095 C 25 14.656, 27.660 18, 29.712 18 C 30.292 18, 30.990 18.852, 31.262 19.893 C 31.608 21.219, 30.015 23.616, 25.946 27.893 C 22.749 31.252, 19.754 34, 19.290 34 C 18.825 34, 17.261 32.650, 15.813 31 C 12.689 27.439, 8.919 27.081, 5.939 30.061 C 3.211 32.789, 3.760 36.752, 7.221 39.325 C 9.461 40.989, 10.372 41.152, 12.371 40.241 C 16.492 38.363, 17.739 40.391, 18.235 49.772 C 18.720 58.961, 18.986 58.613, 11.007 59.230 C 8.352 59.435, 7.210 60.138, 6.247 62.158 C 4.528 65.762, 6.091 69.734, 9.571 70.607 C 11.875 71.186, 13.099 70.384, 19.154 64.329 L 26.095 57.387 25.043 52.694 C 21.448 36.649, 36.546 21.425, 52.505 25.001 C 57.910 26.212, 60.841 24.874, 61.673 20.816 C 61.976 19.339, 63.523 16.973, 65.112 15.558 C 68.521 12.521, 68.861 8.861, 66 6 C 63.209 3.209, 59.563 3.468, 57.073 6.635 M 45.649 45.830 C 7.616 83.894, 5.153 86.828, 10.392 87.837 C 11.661 88.081, 14.922 85.549, 20.562 79.939 L 28.863 71.680 31.432 73.363 C 34.760 75.544, 34.670 76.966, 31 80.187 C 27.439 83.311, 27.081 87.081, 30.061 90.061 C 32.789 92.789, 36.752 92.240, 39.325 88.779 C 40.989 86.539, 41.152 85.628, 40.241 83.629 C 38.363 79.508, 40.391 78.261, 49.772 77.765 C 58.961 77.280, 58.613 77.014, 59.230 84.993 C 59.853 93.056, 70.937 92.030, 70.985 83.905 C 71 81.344, 68.340 78, 66.288 78 C 65.708 78, 65.010 77.148, 64.738 76.107 C 64.392 74.781, 65.985 72.384, 70.054 68.107 C 73.251 64.748, 76.246 62, 76.710 62 C 77.175 62, 78.739 63.350, 80.187 65 C 83.311 68.561, 87.081 68.919, 90.061 65.939 C 92.789 63.211, 92.240 59.248, 88.779 56.675 C 86.539 55.011, 85.628 54.848, 83.629 55.759 C 79.516 57.633, 78.261 55.606, 77.769 46.293 C 77.287 37.168, 77.400 37, 83.959 37 C 88.426 37, 90.333 35.146, 90.333 30.805 C 90.333 27.233, 87.884 25, 83.964 25 C 81.288 25, 78 27.662, 78 29.829 C 78 30.473, 77.587 31, 77.082 31 C 76.577 31, 75.510 31.251, 74.711 31.557 C 73.876 31.878, 72.973 31.373, 72.588 30.369 C 72.090 29.070, 74 26.531, 80.058 20.442 C 85.601 14.870, 88.082 11.661, 87.838 10.380 C 86.833 5.110, 83.733 7.715, 45.649 45.830 M 35.655 35.829 C 33.538 38.168, 33.531 42.388, 35.641 44.498 C 37.163 46.020, 37.599 45.829, 41.623 41.879 C 45.699 37.879, 45.865 37.508, 44.327 35.809 C 42.218 33.478, 37.773 33.488, 35.655 35.829 M 50.120 50.363 L 33.739 66.783 36.120 68.336 C 45.638 74.546, 60.980 71.071, 67.443 61.241 C 72.353 53.773, 72.706 41.526, 68.170 35.983 C 66.537 33.988, 66.139 34.305, 50.120 50.363 M 51.571 51.571 C 49.550 53.592, 49.550 58.408, 51.571 60.429 C 52.436 61.293, 54.429 62, 56 62 C 59.644 62, 62 59.644, 62 56 C 62 52.356, 59.644 50, 56 50 C 54.429 50, 52.436 50.707, 51.571 51.571" stroke="none" fill="#9cacbc" fill-rule="evenodd"/></svg>