<svg xmlns="http://www.w3.org/2000/svg" width="64" height="64" viewBox="0 0 64 64" version="1.1"><path d="" stroke="none" fill="#a0acbc" fill-rule="evenodd"/><path d="M 4.731 9.693 C 3.095 10.119, 2.983 11.853, 3.231 32.827 L 3.500 55.500 14 55.773 C 20.641 55.945, 25.658 56.589, 27.651 57.523 C 31.573 59.361, 32.427 59.361, 36.349 57.522 C 38.381 56.569, 43.406 55.948, 50.500 55.772 L 61.500 55.500 61.769 32.814 L 62.037 10.128 57.459 9.442 C 52.614 8.715, 43.158 9.470, 36.500 11.116 C 33.559 11.843, 30.149 11.694, 23.619 10.552 C 15.006 9.047, 8.369 8.745, 4.731 9.693 M 7 30 L 7 46 12.250 46.021 C 15.138 46.032, 20.323 46.633, 23.774 47.356 L 30.048 48.671 29.774 32.585 L 29.500 16.500 24 15.346 C 20.975 14.712, 15.912 14.149, 12.750 14.096 L 7 14 7 30 M 40.110 15.217 L 34.721 16.197 35.436 31.841 C 35.830 40.445, 36.312 47.645, 36.507 47.840 C 36.702 48.036, 39.165 47.701, 41.980 47.098 C 44.795 46.494, 49.326 46, 52.049 46 L 57 46 57 30 L 57 14 51.250 14.119 C 48.087 14.184, 43.075 14.678, 40.110 15.217" stroke="none" fill="#9cacbc" fill-rule="evenodd"/></svg>