<svg xmlns="http://www.w3.org/2000/svg" width="96" height="96" viewBox="0 0 96 96" version="1.1"><path d="" stroke="none" fill="#a0acbc" fill-rule="evenodd"/><path d="M 25.286 21.512 C 24.098 22.344, 21.280 26.369, 19.024 30.457 C 15.071 37.617, 14.761 37.913, 10.540 38.546 C 3.320 39.629, 2 41.630, 2 51.492 C 2 61.808, 3.093 64.383, 8.608 67.052 C 10.973 68.197, 13.185 70.009, 13.525 71.078 C 14.316 73.572, 19.012 76, 23.046 76 C 26.977 76, 31.497 73.400, 32.893 70.335 C 33.929 68.063, 34.306 68, 46.953 68 L 59.949 68 61.399 70.805 C 65.030 77.827, 77.618 77.523, 80.893 70.335 C 81.614 68.753, 82.802 68, 84.579 68 C 86.226 68, 88.463 66.737, 90.600 64.600 C 93.852 61.348, 94 60.879, 94 53.823 C 94 42.977, 92.749 41.762, 78.730 38.991 C 73.047 37.867, 72.884 37.738, 67.995 30.492 C 60.783 19.805, 61.247 20, 43 20 C 30.735 20, 26.988 20.320, 25.286 21.512 M 29.848 27.025 C 28.357 27.896, 23 36.033, 23 37.428 C 23 37.743, 32.455 38, 44.010 38 L 65.020 38 61.433 32.596 C 59.459 29.624, 56.867 26.930, 55.672 26.610 C 52.108 25.654, 31.633 25.983, 29.848 27.025 M 16.500 44.497 C 15.950 44.684, 13.813 45.118, 11.750 45.463 L 8 46.091 8 51.611 C 8 57.592, 9.259 61, 11.468 61 C 12.236 61, 13.152 60.095, 13.503 58.989 C 13.855 57.883, 15.437 56.308, 17.021 55.489 C 22.795 52.503, 30.508 54.429, 32.784 59.425 C 33.957 61.999, 33.960 62, 46.953 62 L 59.949 62 61.399 59.195 C 65.003 52.226, 77.572 52.375, 80.784 59.425 C 82.195 62.522, 83.350 62.650, 86 60 C 88.304 57.696, 88.804 49.872, 86.750 48.270 C 86.063 47.734, 81.675 46.554, 77 45.647 C 70.385 44.364, 62.845 44.016, 43 44.078 C 28.975 44.122, 17.050 44.311, 16.500 44.497 M 20 62 C 18.900 63.100, 18 64.450, 18 65 C 18 66.297, 21.703 70, 23 70 C 24.297 70, 28 66.297, 28 65 C 28 64.450, 27.100 63.100, 26 62 C 24.900 60.900, 23.550 60, 23 60 C 22.450 60, 21.100 60.900, 20 62 M 68 62 C 66.900 63.100, 66 64.450, 66 65 C 66 65.550, 66.900 66.900, 68 68 C 69.100 69.100, 70.450 70, 71 70 C 71.550 70, 72.900 69.100, 74 68 C 75.100 66.900, 76 65.550, 76 65 C 76 63.703, 72.297 60, 71 60 C 70.450 60, 69.100 60.900, 68 62" stroke="none" fill="#9cacbc" fill-rule="evenodd"/></svg>