<svg width="796" height="796" viewBox="0 0 796 796" fill="none" xmlns="http://www.w3.org/2000/svg">
<path d="M398 796C617.809 796 796 617.809 796 398C796 178.191 617.809 0 398 0C178.191 0 0 178.191 0 398C0 617.809 178.191 796 398 796Z" fill="#13333D"/>
<path d="M398 742.3C588.152 742.3 742.3 588.152 742.3 398C742.3 207.848 588.152 53.7 398 53.7C207.848 53.7 53.7 207.848 53.7 398C53.7 588.152 207.848 742.3 398 742.3Z" fill="#0F3D4E"/>
<path d="M654 347.2C636.5 338.9 618.2 333 599.5 329.5C565.9 251.6 488.3 197 398 197C276.8 197 178.5 295.3 178.5 416.5C178.5 418.7 178.5 420.8 178.6 423C178.5 425.2 178.5 427.3 178.5 429.5C178.5 550.7 276.8 649 398 649C445.2 649 489 634.1 524.8 608.7C526.5 607.5 528.2 606.3 529.9 605C530.1 604.8 530.4 604.7 530.6 604.5C530.6 604.5 530.7 604.5 530.7 604.4L543.9 617.4C552.3 625.7 565.9 625.7 574.3 617.4L648.2 544.7C662.8 530.3 671.1 510.6 671.1 490.1V374.1C671 362.6 664.4 352.1 654 347.2Z" fill="#13333D"/>
<path d="M398 629C519.227 629 617.5 530.727 617.5 409.5C617.5 288.273 519.227 190 398 190C276.773 190 178.5 288.273 178.5 409.5C178.5 530.727 276.773 629 398 629Z" fill="#0091C5"/>
<path d="M398 616C519.227 616 617.5 517.727 617.5 396.5C617.5 275.273 519.227 177 398 177C276.773 177 178.5 275.273 178.5 396.5C178.5 517.727 276.773 616 398 616Z" fill="#36A9E1"/>
<path d="M398 573.8C495.92 573.8 575.3 494.42 575.3 396.5C575.3 298.58 495.92 219.2 398 219.2C300.08 219.2 220.7 298.58 220.7 396.5C220.7 494.42 300.08 573.8 398 573.8Z" fill="#413E91"/>
<path d="M398 528.4C307.8 528.4 233.3 461 222.1 373.8C221.2 381.2 220.7 388.8 220.7 396.5C220.7 494.4 300.1 573.8 398 573.8C495.9 573.8 575.3 494.4 575.3 396.5C575.3 388.8 574.8 381.2 573.9 373.8C562.7 461 488.2 528.4 398 528.4Z" fill="#2C3088"/>
<path d="M398 475.9C344.7 475.9 294 486.9 258.3 505.7C264.7 513.9 271.8 521.5 279.6 528.4C310.4 514 352.9 505.7 398 505.7C443.1 505.7 485.6 514 516.4 528.4C524.1 521.5 531.2 513.8 537.7 505.7C502 486.9 451.3 475.9 398 475.9Z" fill="#36A9E1"/>
<path d="M268.4 517.5C271.9 521.3 275.7 524.9 279.5 528.4C310.3 514 352.8 505.7 397.9 505.7C443 505.7 485.5 514 516.3 528.4C520.2 524.9 523.9 521.3 527.4 517.5C492.6 501.7 446.3 492.7 397.8 492.7C349.5 492.7 303.2 501.8 268.4 517.5Z" fill="#0091C5"/>
<path d="M398 317.1C451.3 317.1 502 306.1 537.7 287.3C531.3 279.1 524.2 271.5 516.4 264.6C485.6 279 443.1 287.3 398 287.3C352.9 287.3 310.4 279 279.6 264.6C271.9 271.5 264.8 279.2 258.3 287.3C294 306.2 344.7 317.1 398 317.1Z" fill="#36A9E1"/>
<path d="M398 302.2C349 302.2 302.2 292.9 267.2 276.8C264.1 280.2 261.1 283.7 258.3 287.3C294 306.1 344.7 317.1 398 317.1C451.3 317.1 502 306.1 537.7 287.3C534.9 283.7 531.9 280.2 528.8 276.8C493.8 292.9 447 302.2 398 302.2Z" fill="#0091C5"/>
<path d="M383.1 219.9V573.2C388 573.6 393 573.8 398 573.8C403 573.8 408 573.6 412.9 573.2V219.9C408 219.5 403 219.3 398 219.3C393 219.2 388 219.4 383.1 219.9Z" fill="#36A9E1"/>
<path d="M221.3 381.6C220.9 386.5 220.7 391.5 220.7 396.5C220.7 401.5 220.9 406.5 221.3 411.4H574.6C575 406.5 575.2 401.5 575.2 396.5C575.2 391.5 575 386.5 574.6 381.6H221.3Z" fill="#36A9E1"/>
<path d="M574.7 396.5H221.3C221.1 394 220.9 391.5 220.8 389C220.7 391.5 220.6 394 220.6 396.5C220.6 401.5 220.8 406.5 221.2 411.4H574.5C574.9 406.5 575.1 401.5 575.1 396.5C575.1 394 575 391.5 574.9 389C575 391.6 574.9 394 574.7 396.5Z" fill="#0091C5"/>
<path d="M341.3 538.5C323.5 500.8 313.6 450.4 313.6 396.5C313.6 342.6 323.4 292.2 341.3 254.5C347.2 242 353.8 231.4 360.8 223.1C344.7 226.5 329.4 232.2 315.3 239.6C315 240.3 314.6 241 314.3 241.6C294.6 283.2 283.8 338.2 283.8 396.4C283.8 454.6 294.6 509.6 314.3 551.2C314.6 551.9 315 552.6 315.3 553.2C329.4 560.7 344.7 566.3 360.8 569.7C353.8 561.6 347.2 551.1 341.3 538.5Z" fill="#36A9E1"/>
<path d="M313.6 396.5C313.6 342.6 323.4 292.2 341.3 254.5C347.2 242 353.8 231.4 360.8 223.1C354.3 224.5 348 226.2 341.8 228.3C336.3 235.7 331.2 244.4 326.4 254.5C308.6 292.2 298.7 342.6 298.7 396.5C298.7 450.4 308.5 500.8 326.4 538.5C331.2 548.5 336.3 557.3 341.8 564.7C348 566.8 354.4 568.5 360.8 569.9C353.8 561.6 347.2 551.1 341.3 538.5C323.4 500.9 313.6 450.4 313.6 396.5Z" fill="#0091C5"/>
<path d="M454.7 254.5C472.5 292.2 482.4 342.6 482.4 396.5C482.4 450.4 472.6 500.8 454.7 538.5C448.8 551 442.2 561.6 435.2 569.9C451.3 566.5 466.6 560.8 480.7 553.4C481 552.7 481.4 552 481.7 551.4C501.4 509.8 512.2 454.8 512.2 396.6C512.2 338.4 501.4 283.4 481.7 241.8C481.4 241.1 481 240.4 480.7 239.8C466.6 232.3 451.3 226.7 435.2 223.3C442.2 231.4 448.8 242 454.7 254.5Z" fill="#36A9E1"/>
<path d="M435.2 569.9C441.7 568.5 448 566.8 454.2 564.7C459.7 557.3 464.8 548.6 469.6 538.5C487.4 500.8 497.3 450.4 497.3 396.5C497.3 342.6 487.5 292.2 469.6 254.5C464.8 244.5 459.7 235.7 454.2 228.3C448 226.2 441.6 224.5 435.2 223.1C442.2 231.4 448.8 241.9 454.7 254.5C472.5 292.2 482.4 342.6 482.4 396.5C482.4 450.4 472.6 500.8 454.7 538.5C448.8 551.1 442.2 561.6 435.2 569.9Z" fill="#0091C5"/>
<path d="M464 337.2C453.6 342.1 447 352.6 447 364.1V480.1C447 500.6 455.2 520.3 469.9 534.7L524.8 588.7C580.9 548.9 617.5 483.5 617.5 409.5C617.5 407.3 617.5 405.2 617.4 403C617.5 400.8 617.5 398.7 617.5 396.5C617.5 369.7 612.7 344.1 603.9 320.3C557.1 310.7 508 316.3 464 337.2Z" fill="#0091C5"/>
<path d="M648.1 524.7L574.2 597.4C565.8 605.7 552.2 605.7 543.8 597.4L469.9 524.7C455.3 510.3 447 490.6 447 470.1V354.1C447 342.6 453.6 332.1 464 327.2C524.1 298.6 593.9 298.6 654 327.2C664.4 332.1 671 342.6 671 354.1V470.1C671 490.6 662.8 510.3 648.1 524.7Z" fill="white"/>
<path d="M658.5 464.2V362.7C658.5 352.7 652.6 343.5 643.4 339.2C590 314.2 528 314.2 474.6 339.2C465.4 343.5 459.5 352.7 459.5 362.7V464.1C459.5 482 466.8 499.2 479.8 511.8L545.5 575.4C553 582.7 565 582.7 572.5 575.4L638.2 511.8C651.2 499.3 658.5 482.1 658.5 464.2Z" fill="#DADADA"/>
<path d="M631.4 507.6L571.3 566.7C564.4 573.4 553.4 573.4 546.6 566.7L486.5 507.6C480.608 501.804 475.929 494.893 472.735 487.27C469.542 479.647 467.898 471.465 467.9 463.2V368.9C467.9 359.6 473.3 351.1 481.7 347C530.5 323.7 587.3 323.7 636.1 347C644.5 351 649.9 359.5 649.9 368.9V463.2C650 479.9 643.3 495.9 631.4 507.6Z" fill="#A44995"/>
<path d="M636.2 347.1C587.4 323.8 530.6 323.8 481.8 347.1C473.4 351.1 468 359.6 468 369V382C468 372.7 473.4 364.2 481.8 360.1C530.6 336.8 587.4 336.8 636.2 360.1C644.6 364.1 650 372.6 650 382V369C650 359.6 644.6 351.1 636.2 347.1Z" fill="#952584"/>
<path d="M599.3 428.4V414.3C599.3 392 581.1 373.8 558.8 373.8C536.5 373.8 518.3 392 518.3 414.3V428.4C516.8 428.9 515.3 429.5 513.9 430.1V501.4C517 502.7 520.2 503.8 523.3 504.8C526.2 505.7 529.1 506.5 532.1 507.2C539.5 508.9 546.9 509.9 554.3 510.2C557.3 510.3 560.3 510.3 563.2 510.2C570.6 509.9 578.1 508.9 585.4 507.2C588.3 506.5 591.3 505.7 594.2 504.8C597.4 503.8 600.5 502.7 603.6 501.4V430C602.2 429.4 600.7 428.9 599.3 428.4ZM558.8 387.9C573.3 387.9 585.1 399.7 585.1 414.2V424.1C567.7 420.1 549.9 420.1 532.5 424.1V414.2C532.5 399.7 544.3 387.9 558.8 387.9Z" fill="#952584"/>
<path d="M599.3 451.5H585V404.2C585 389.7 573.2 377.9 558.7 377.9C544.2 377.9 532.4 389.7 532.4 404.2V451.5H518.2V404.2C518.2 381.9 536.4 363.7 558.7 363.7C581 363.7 599.2 381.9 599.2 404.2V451.5H599.3Z" fill="#36A9E1"/>
<path d="M558.8 371.9C541.1 371.9 526.6 384.7 526.6 400.3V451.4H532.5V404.1C532.5 389.6 544.3 377.8 558.8 377.8C573.3 377.8 585.1 389.6 585.1 404.1V451.4H591V400.3C590.9 384.7 576.5 371.9 558.8 371.9Z" fill="#0091C5"/>
<path d="M603.7 491.4C574.5 503.2 543.1 503.2 513.8 491.4V420C541.2 408.9 570.4 408.2 598.1 417.9C600 418.6 601.9 419.3 603.7 420V491.4Z" fill="#DADADA"/>
<path d="M523.2 416.7V494.8C546.5 502.1 570.9 502.1 594.3 494.8V416.7C570.9 409.4 546.6 409.4 523.2 416.7Z" fill="white"/>
<path d="M558.8 457.4C565.483 457.4 570.9 451.983 570.9 445.3C570.9 438.617 565.483 433.2 558.8 433.2C552.117 433.2 546.7 438.617 546.7 445.3C546.7 451.983 552.117 457.4 558.8 457.4Z" fill="#36A9E1"/>
<path d="M561.2 475.4H556.3C553.7 475.4 551.6 473.3 551.6 470.7V445.2H566V470.7C566 473.2 563.8 475.4 561.2 475.4Z" fill="#36A9E1"/>
<path d="M559.4 472.4H558C556.7 472.4 555.7 471.4 555.7 470.1V448.6H561.6V470.1C561.7 471.4 560.7 472.4 559.4 472.4Z" fill="#2C3088"/>
<path d="M558.8 452.5C562.776 452.5 566 449.276 566 445.3C566 441.324 562.776 438.1 558.8 438.1C554.824 438.1 551.6 441.324 551.6 445.3C551.6 449.276 554.824 452.5 558.8 452.5Z" fill="#2C3088"/>
<path d="M603.7 426.9C602.2 426.3 600.7 425.8 599.3 425.2C571.2 415.4 541.7 416 513.9 426.9V434.3C514.3 434.3 514.8 434.2 515.2 434C541.8 423.2 570.1 422.5 597 431.9C598.8 432.5 600.7 433.2 602.5 434C602.9 434.2 603.4 434.3 603.8 434.3V426.9H603.7ZM513.8 484.5C515.3 485.1 516.8 485.6 518.2 486.2C531.5 490.9 545.1 493.2 558.7 493.2C573.8 493.2 589 490.3 603.6 484.6V477.2C603.2 477.2 602.7 477.3 602.3 477.5C575.7 488.3 547.4 489 520.5 479.6C518.7 479 516.8 478.3 515 477.5C514.6 477.3 514.1 477.2 513.7 477.2V484.5H513.8Z" fill="#DADADA"/>
</svg>
