<svg xmlns="http://www.w3.org/2000/svg" width="96" height="96" viewBox="0 0 96 96" version="1.1"><path d="" stroke="none" fill="#a0acbc" fill-rule="evenodd"/><path d="M 41.790 7.344 C 34.951 12.207, 26.474 15.729, 18.579 16.989 C 14.773 17.596, 11.285 18.324, 10.829 18.605 C 10.373 18.887, 10 26.694, 10 35.954 C 10 55.792, 11.467 62.165, 18.352 72.240 C 24.828 81.717, 41.564 94, 48 94 C 54.436 94, 71.172 81.717, 77.648 72.240 C 84.533 62.165, 86 55.792, 86 35.954 C 86 26.694, 85.627 18.887, 85.171 18.605 C 84.715 18.324, 81.227 17.596, 77.421 16.989 C 69.526 15.729, 61.049 12.207, 54.210 7.344 C 51.623 5.505, 48.829 4, 48 4 C 47.171 4, 44.377 5.505, 41.790 7.344 M 44.964 13.418 C 41.036 17.220, 23.627 24, 17.790 24 C 16.185 24, 16.002 25.060, 16.020 34.250 C 16.048 48.929, 17.480 57.245, 21.172 64.171 C 25.029 71.409, 34.538 80.476, 42.422 84.437 L 48.269 87.375 53.742 84.437 C 61.741 80.144, 71.108 71.151, 74.804 64.216 C 78.514 57.256, 79.952 48.963, 79.980 34.364 L 80 24.227 75.289 23.521 C 69.061 22.587, 60.941 19.489, 53.891 15.357 C 47.400 11.553, 46.984 11.462, 44.964 13.418 M 43.284 31.493 C 40.919 36.316, 40.158 37.054, 37.045 37.538 C 25.779 39.293, 24.696 41.076, 30.997 47.497 L 35.184 51.764 34.477 58.369 C 33.588 66.674, 34.829 67.481, 42.616 63.662 L 48 61.022 53.384 63.662 C 61.171 67.481, 62.412 66.674, 61.523 58.369 L 60.816 51.764 65.003 47.497 C 71.304 41.076, 70.221 39.293, 58.955 37.538 C 55.842 37.054, 55.081 36.316, 52.716 31.493 C 49.092 24.105, 46.908 24.105, 43.284 31.493 M 47 39 C 47 40.967, 42.952 44, 40.326 44 L 37.651 44 40.028 46.530 C 41.767 48.381, 42.340 50.023, 42.163 52.652 C 41.953 55.775, 42.155 56.140, 43.710 55.444 C 44.695 55.003, 46.625 54.643, 48 54.643 C 49.375 54.643, 51.305 55.003, 52.290 55.444 C 53.845 56.140, 54.047 55.775, 53.837 52.652 C 53.660 50.023, 54.233 48.381, 55.972 46.530 L 58.349 44 55.674 44 C 53.048 44, 49 40.967, 49 39 C 49 38.450, 48.550 38, 48 38 C 47.450 38, 47 38.450, 47 39" stroke="none" fill="#9cacbc" fill-rule="evenodd"/></svg>